<svg width="640" height="460" viewBox="0 0 640 460" xmlns="http://www.w3.org/2000/svg" fill="none">
  <rect width="640" height="460" rx="28" fill="#E8F1FF"/>
  <circle cx="522" cy="102" r="52" fill="#D4E5FF"/>
  <circle cx="118" cy="370" r="64" fill="#DFFAF0"/>

  <rect x="120" y="92" width="390" height="245" rx="24" fill="white" stroke="#C9DCF8" stroke-width="4"/>
  <rect x="152" y="130" width="212" height="18" rx="9" fill="#BCD5FF"/>
  <rect x="152" y="164" width="298" height="14" rx="7" fill="#E5EEFF"/>
  <rect x="152" y="191" width="270" height="14" rx="7" fill="#E5EEFF"/>

  <rect x="152" y="236" width="132" height="64" rx="16" fill="#1D6BFF"/>
  <path d="M181 268h74" stroke="white" stroke-width="8" stroke-linecap="round"/>

  <rect x="306" y="236" width="144" height="64" rx="16" fill="#EAF3FF" stroke="#C8DBFF" stroke-width="3"/>
  <path d="M338 268h80" stroke="#1D6BFF" stroke-width="8" stroke-linecap="round"/>

  <circle cx="471" cy="329" r="43" fill="#13A67A"/>
  <path d="M452 329l12 12 24-24" stroke="white" stroke-width="8" stroke-linecap="round" stroke-linejoin="round"/>

  <rect x="164" y="346" width="246" height="16" rx="8" fill="#DCE9FF"/>
</svg>

